<?xml version="1.0" encoding="utf-8"?>
<!-- Generator: Adobe Illustrator 24.0.0, SVG Export Plug-In . SVG Version: 6.00 Build 0)  -->
<svg version="1.1" id="Capa_1" xmlns="http://www.w3.org/2000/svg" xmlns:xlink="http://www.w3.org/1999/xlink" x="0px" y="0px"
	 viewBox="0 0 62.2 42.1" style="enable-background:new 0 0 62.2 42.1;" xml:space="preserve">
<style type="text/css">
	.st0{fill:#072133;}
</style>
<g>
	<path class="st0" d="M19.6,0c0,9.4,0,18.9,0,28.6c-1,0-1.9,0.1-2.8,0c-0.3,0-0.6-0.7-0.6-1c0-2.8,0-5.6,0-8.4c0-5.9,0-11.8,0-17.7
		c0-0.5,0.1-0.9,0.2-1.4C17.5,0,18.5,0,19.6,0z"/>
	<path class="st0" d="M0.2,13.2C-0.3,10.6,0.9,8.5,3.4,8c2-0.3,4.2-0.3,6.3,0c2.4,0.4,3.6,2.2,3.7,4.7c0,3.3,0,6.7,0,10
		c0,3.6-1.3,5.2-4.9,5.7c-1.8,0.2-3.6,0-5.4-0.4c-1.9-0.4-3-1.9-3.1-3.8c-0.1-1-0.1-1.9,0-2.9c0.2-1.9,1.3-3.1,3.1-3.7
		c1.6-0.5,3.2-1.1,4.8-1.6c1.7-0.6,2.3-1.5,2-3.2c-0.2-1.2-1.2-2-2.8-2.1c-2.3-0.2-2.9,0.2-3.9,2.2c-0.1,0.2-0.5,0.4-0.8,0.4
		C1.8,13.2,1,13.2,0.2,13.2z M10.1,18.4c-1.7,0.6-3.4,1.1-4.9,1.8c-1.4,0.6-2,1.7-1.7,3.2c0.2,1.4,1,2.1,2.6,2.2c0.7,0,1.3,0,2-0.1
		c1.3-0.2,2.1-1,2.1-2.3C10.1,21.6,10.1,20.1,10.1,18.4z"/>
	<path class="st0" d="M48.9,13.2c-0.3-2.7,0.8-4.7,3.2-5.1c2.1-0.4,4.4-0.4,6.6,0c2.3,0.4,3.4,2.1,3.4,4.5c0,3.7,0,7.5,0,11.2
		c0,2-0.9,3.4-2.7,4.1c-2.6,1-5.2,1-7.8,0c-1.8-0.7-2.7-2.1-2.8-4c0-0.7,0-1.3,0-2c0.1-2.2,1.2-3.7,3.3-4.4c1.5-0.5,3.1-1.1,4.6-1.6
		c1.6-0.6,2.3-1.5,2.1-3.1c-0.2-1.3-1.2-2.1-2.8-2.3c-2.3-0.2-2.8,0.2-3.9,2.2c-0.1,0.2-0.4,0.4-0.7,0.4
		C50.6,13.2,49.8,13.2,48.9,13.2z M58.9,18.4c-1.6,0.6-3.1,1.1-4.5,1.6c-1.9,0.7-2.6,2-2.1,3.8c0.4,1.5,1.7,2.1,4.1,1.8
		c1.7-0.2,2.5-1.1,2.6-2.8C58.9,21.4,58.9,19.9,58.9,18.4z"/>
	<path class="st0" d="M22.4,7.7c1.1,0,2.1,0,3.3,0c0,0.5,0,1,0,1.5c0,4.4,0,8.9,0,13.3c0,1.3,0.2,2.4,1.6,2.9
		c1.6,0.6,3.9,0.3,4.6-0.7c0.4-0.6,0.5-1.5,0.5-2.2c0-4.4,0-8.8,0-13.2c0-0.5,0-0.9,0-1.5c1.2,0,2.2,0,3.4,0c0,2,0,4,0,6
		c0,3.3,0,6.6,0,9.9c0,2.3-1,3.8-3.2,4.5c-2.4,0.8-4.9,0.8-7.3-0.1c-1.6-0.6-2.9-1.7-2.9-3.6C22.4,18.9,22.4,13.3,22.4,7.7z"/>
	<path class="st0" d="M47.6,7.8c-0.2,0.7-0.3,1.4-0.5,2c-0.2,0.3-0.6,0.6-1,0.7c-0.4,0.1-0.8,0-1.2,0c-1.9,0.2-2.8,1.1-2.8,3
		c0,4.5,0,9,0,13.4c0,0.5,0,0.9,0,1.5c-1.2,0-2.2,0-3.4,0c0-0.6,0-1.2,0-1.8c0-4.5,0-9,0-13.4c0-3.2,1.4-4.9,4.6-5.4
		C44.6,7.6,46.1,7.8,47.6,7.8z"/>
	<path class="st0" d="M62.2,41.8c-2,0.3-2.1,0.3-2.3-1.4c-0.1-0.8-0.3-1.6-0.4-2.8c-0.9,1.7-1.7,3.1-2.6,4.9c-1-1.8-1.7-3.2-2.6-4.9
		c-0.2,1.1-0.3,1.9-0.4,2.7c-0.3,1.8-0.3,1.8-2.3,1.5c0.5-3.1,1-6.2,1.6-9.4c0.2,0,0.3-0.1,0.5-0.1c1.1,2,2.1,3.9,3.3,6.1
		c1.1-2.1,2.2-4,3.3-6c0.2,0,0.3,0,0.5,0.1C61.2,35.5,61.7,38.6,62.2,41.8z"/>
	<path class="st0" d="M36.1,41.9C35,42,34,42.4,33.5,41c-0.1-0.2-0.5-0.4-0.7-0.4c-0.8,0-1.7,0-2.5,0c-0.3,0-0.7,0.2-0.8,0.4
		c-0.4,1.4-1.5,1-2.7,1c1.6-3.3,3-6.5,4.5-9.6c0.1,0,0.3,0,0.4,0C33.1,35.5,34.6,38.6,36.1,41.9z M32.5,38.7c-0.3-0.7-0.6-1.3-1-2.2
		c-0.4,0.9-0.7,1.5-1,2.2C31.2,38.7,31.7,38.7,32.5,38.7z"/>
	<path class="st0" d="M41.6,42.1c1.6-3.5,3.1-6.6,4.6-9.7c0.1,0,0.3,0,0.4,0c1.5,3.1,3,6.3,4.5,9.5c-1.2,0.1-2.2,0.5-2.7-0.9
		c-0.1-0.2-0.6-0.4-0.9-0.4c-1.3,0.2-2.9-0.7-3.7,1.2C43.7,42.1,42.6,42,41.6,42.1z M46.4,36.5c-0.4,0.9-0.7,1.5-1,2.2
		c0.7,0,1.2,0,1.9,0C47,38,46.8,37.4,46.4,36.5z"/>
	<path class="st0" d="M40,41.9c-0.8,0-1.4,0-2.1,0c0-2.4,0-4.8,0-7.3c-0.8-0.1-1.4-0.1-2.1-0.2c-0.5-1.8-0.4-2,1.4-2
		c1.6,0,3.2,0,4.9,0c0,0.7,0,1.3,0,1.9c-0.7,0.1-1.3,0.1-2.1,0.2C40,37,40,39.4,40,41.9z"/>
	<path class="st0" d="M22.9,40c1.2,0,2.3,0,3.4,0c0,0.7,0,1.3,0,1.9c-1.8,0-3.6,0-5.6,0c0-2.9,0-5.8,0.1-8.7c0-0.2,0.7-0.5,1.1-0.6
		c0.6-0.2,1,0.1,1,0.9c0,1.7,0,3.4,0,5.1C22.9,39,22.9,39.4,22.9,40z"/>
</g>
</svg>
